<?xml version="1.0" standalone="no"?>
<!DOCTYPE svg PUBLIC "-//W3C//DTD SVG 20010904//EN"
 "http://www.w3.org/TR/2001/REC-SVG-20010904/DTD/svg10.dtd">
<svg version="1.0" xmlns="http://www.w3.org/2000/svg"
 width="32.000000pt" height="32.000000pt" viewBox="0 0 32.000000 32.000000"
 preserveAspectRatio="xMidYMid meet">

<g transform="translate(0.000000,32.000000) scale(0.100000,-0.100000)"
fill="#000000" stroke="none">
<path d="M140 253 c-7 -32 -14 -61 -17 -65 -2 -4 -27 4 -56 18 l-52 26 25 -27
c27 -29 68 -55 56 -36 -4 6 -3 11 2 11 5 0 10 -11 10 -25 0 -14 -5 -25 -10
-25 -5 0 -6 5 -2 11 12 19 -29 -7 -56 -36 l-25 -27 52 26 c29 14 54 22 56 18
3 -4 10 -33 17 -65 7 -31 16 -57 20 -57 4 0 13 26 20 57 7 32 14 61 17 65 2 4
27 -4 56 -18 l52 -26 -25 27 c-27 29 -68 55 -56 36 4 -6 3 -11 -2 -11 -5 0 -9
11 -9 25 0 14 4 25 9 25 5 0 6 -5 2 -11 -12 -19 29 7 56 36 l25 27 -52 -26
c-29 -14 -54 -22 -56 -18 -3 4 -10 33 -17 65 -7 31 -16 57 -20 57 -4 0 -13
-26 -20 -57z m37 -30 c11 -45 6 -63 -17 -63 -23 0 -28 18 -17 63 5 26 13 47
17 47 4 0 12 -21 17 -47z m0 -81 c8 -5 9 -19 0 -55 -5 -26 -13 -47 -17 -47 -4
0 -12 21 -17 47 -11 45 -6 63 17 63 3 0 10 -4 17 -8z"/>
</g>
</svg>
